<svg xmlns="http://www.w3.org/2000/svg" viewBox="0 0 152 152" fill="none">
<path d="M0 30C0 13.4315 13.4315 0 30 0H122C138.569 0 152 13.4315 152 30V122C152 138.569 138.569 152 122 152H30C13.4315 152 0 138.569 0 122V30Z" fill="url(#paint0_linear_4226_1677)"/>
<path fill-rule="evenodd" clip-rule="evenodd" d="M42.5783 22.6433H109.405C120.377 22.6433 129.353 31.5702 129.353 42.5916V109.418C129.353 120.44 120.427 129.367 109.405 129.367H42.5783C31.5569 129.367 22.63 120.44 22.63 109.418V75.0076L33.3522 64.3353C34.7486 62.9389 37.1923 63.9363 37.1923 65.9311V95.305H45.3212L45.5207 77.2019C45.5207 75.5063 46.2189 73.9603 47.316 72.8632C48.4132 71.766 49.9592 71.0678 51.6548 71.0678C54.1483 71.0678 56.193 73.0626 56.193 75.5562V95.2551H64.322V77.2518C64.322 75.5562 65.0201 74.0102 66.1173 72.913C67.2145 71.8159 68.7604 71.1177 70.4561 71.1177C72.9496 71.1177 74.9943 73.1125 74.9943 75.606V95.305H83.1232V74.1099C83.1232 68.674 78.6847 64.2854 73.2488 64.2854H72.1018C67.8129 64.2854 64.6212 66.8288 63.2747 69.7213C61.6289 66.4797 58.2876 64.2854 54.4475 64.2854H53.3005C49.0116 64.2854 45.5207 67.7265 45.4708 72.0154V66.1805C45.4708 59.8968 40.3341 55.7076 34.9481 55.7076C32.4047 55.7076 29.8114 56.6552 27.667 58.7497L22.63 63.7368V42.5916C22.63 31.5702 31.5569 22.6433 42.5783 22.6433ZM96.8859 82.6852H118.48H118.53V79.9922C118.53 75.9028 116.834 72.1625 114.091 69.4694C111.348 66.7265 107.558 65.0808 103.419 65.0808C95.0906 65.0808 88.358 71.7635 88.358 79.9922V82.0867C88.358 90.2655 95.0906 96.9482 103.419 96.9482H105.563C108.506 96.9482 111.747 95.7513 114.241 93.8562C116.784 91.9113 118.53 89.2681 118.53 86.3756H110.75C110.75 88.8193 108.705 90.8141 106.262 90.8141H103.968C100.078 90.8141 96.8859 87.6723 96.8859 83.7823V82.6852Z" fill="white"/>
<path d="M102.884 70.9192H102.471C99.0767 70.9192 96.3247 74.3009 96.3247 78.5423H109.03C109.03 76.4216 108.342 74.5301 107.241 73.1545C106.094 71.7789 104.581 70.9192 102.884 70.9192Z" fill="white"/>
<defs>
<linearGradient id="paint0_linear_4226_1677" x1="153.53" y1="12.3721" x2="4.85009" y2="150.512" gradientUnits="userSpaceOnUse">
<stop stop-color="#EC008C"/>
<stop offset="0.697917" stop-color="#FC8B67"/>
<stop offset="1" stop-color="#FFD46D"/>
</linearGradient>
</defs>
</svg>